<svg width="171" height="39" viewBox="0 0 171 39" fill="none" xmlns="http://www.w3.org/2000/svg">
<g clip-path="url(#clip0_379_1349)">
<path d="M63.7586 27.9614C64.0672 27.9614 64.3758 28.1799 64.3758 28.6042V36.3185C64.3758 36.7042 64.0672 37.0385 63.6686 37.0385C63.2829 37.0385 62.9615 36.7042 62.9615 36.3185V31.0985L60.1843 36.2799C60.0429 36.5371 59.8243 36.6657 59.5801 36.6657C59.3358 36.6657 59.1043 36.5371 58.9758 36.2799L56.1858 31.0985V36.3185C56.1858 36.7042 55.8643 37.0385 55.4915 37.0385C55.0929 37.0385 54.7715 36.7042 54.7715 36.3185V28.6042C54.7715 28.1799 55.0929 27.9614 55.4015 27.9614C55.6972 27.9614 55.9672 28.1671 56.1215 28.4242L59.5801 34.7114L63.0386 28.4242C63.1801 28.1671 63.4629 27.9614 63.7586 27.9614Z" fill="white"/>
<path d="M68.9939 30.2371C70.4596 30.2371 72.221 31.3942 72.221 33.4385C72.221 33.9657 71.9253 34.1714 71.3725 34.1714L67.0653 34.1585C67.2068 35.3542 68.1453 35.9457 69.1739 35.9457C69.701 35.9457 70.061 35.8171 70.4596 35.5728C70.6782 35.4571 70.8196 35.3671 70.9996 35.3671C71.2953 35.3671 71.4753 35.5728 71.4753 35.8557C71.4753 36.0228 71.411 36.2028 71.1282 36.4342C70.6396 36.8328 69.9325 37.0642 69.1225 37.0642C67.451 37.0642 65.6639 35.9971 65.6639 33.6699C65.6639 31.3557 67.5282 30.2371 68.9939 30.2371ZM68.9939 31.4199C68.1453 31.4199 67.181 31.9599 67.0653 33.1814H70.8968C70.781 31.9599 69.8553 31.4199 68.9939 31.4199Z" fill="white"/>
<path d="M76.2592 30.2371C77.2106 30.2371 78.0335 30.7257 78.3678 31.4714V30.9571C78.3678 30.5842 78.6763 30.2757 79.0492 30.2757C79.422 30.2757 79.7435 30.5842 79.7435 30.9571V36.3957C79.7435 36.7685 79.422 37.0771 79.0492 37.0771C78.6763 37.0771 78.3678 36.7685 78.3678 36.3957V35.7014C78.2778 36.2799 77.4806 37.0899 76.2592 37.0899C74.832 37.0899 73.122 35.9842 73.122 33.6571C73.122 31.3685 74.8449 30.2371 76.2592 30.2371ZM76.4778 35.9199C77.352 35.9199 78.432 35.2514 78.432 33.6571C78.432 32.0499 77.352 31.4071 76.4778 31.4071C75.5392 31.4071 74.4849 32.1399 74.4849 33.6571C74.4849 35.1871 75.5392 35.9199 76.4778 35.9199Z" fill="white"/>
<path d="M83.5136 30.2371C84.4393 30.2371 85.2365 30.6099 85.6479 31.2399C85.7251 31.3557 85.8279 31.4971 85.8279 31.7157C85.8279 32.0371 85.5836 32.2299 85.2751 32.2299C85.0693 32.2299 84.8765 32.1399 84.6836 31.8828C84.4265 31.5614 84.0665 31.3428 83.5393 31.3428C82.8965 31.3428 82.5108 31.6642 82.5108 32.1271C82.5108 32.4485 82.6908 32.7571 83.3722 32.9499L84.1693 33.1685C85.2622 33.4642 86.0851 33.9528 86.0851 35.0328C86.0851 36.3828 84.8122 37.0642 83.4751 37.0642C82.3565 37.0642 81.5722 36.5757 81.2379 36.0485C81.1736 35.9585 80.9679 35.7014 80.9679 35.3928C80.9679 35.1228 81.1351 34.8399 81.4951 34.8399C81.7908 34.8399 81.9451 35.0199 82.0736 35.2128C82.3951 35.7528 82.9222 35.9328 83.4751 35.9328C84.2208 35.9328 84.7351 35.6242 84.7351 35.1099C84.7351 34.7242 84.4651 34.4414 83.8222 34.2614L82.9608 34.0299C81.7136 33.6828 81.1736 33.0142 81.1736 32.1399C81.1736 30.9314 82.2665 30.2371 83.5136 30.2371Z" fill="white"/>
<path d="M89.7721 37.0899C88.525 37.0899 87.3036 36.3057 87.3036 34.1199V30.9571C87.3036 30.5842 87.5993 30.2757 87.9721 30.2757C88.345 30.2757 88.6536 30.5842 88.6536 30.9571V34.1199C88.6536 35.4057 89.3864 35.9199 90.2221 35.9199C91.4564 35.9199 91.9964 34.8142 92.0736 34.2614V30.9571C92.0736 30.5842 92.3821 30.2757 92.755 30.2757C93.1279 30.2757 93.4364 30.5842 93.4364 30.9571V36.3699C93.4364 36.7557 93.1279 37.0642 92.755 37.0642C92.3821 37.0642 92.0736 36.7557 92.0736 36.3699V35.5214C92.0093 35.9714 91.2379 37.0899 89.7721 37.0899Z" fill="white"/>
<path d="M98.4723 30.2499C98.9223 30.2499 99.1666 30.5328 99.1666 30.8799C99.1666 31.2657 98.8709 31.5228 98.2923 31.5228C97.1609 31.5228 96.428 32.3971 96.338 33.0785V36.3828C96.338 36.7557 96.0295 37.0642 95.6566 37.0642C95.2837 37.0642 94.9752 36.7557 94.9752 36.3828V30.9699C94.9752 30.5842 95.2837 30.2757 95.6566 30.2757C96.0295 30.2757 96.338 30.5842 96.338 30.9699V31.8185C96.4023 31.3685 97.2123 30.2499 98.4723 30.2499Z" fill="white"/>
<path d="M103.008 30.2371C104.473 30.2371 106.235 31.3942 106.235 33.4385C106.235 33.9657 105.939 34.1714 105.386 34.1714L101.079 34.1585C101.22 35.3542 102.159 35.9457 103.188 35.9457C103.715 35.9457 104.075 35.8171 104.473 35.5728C104.692 35.4571 104.833 35.3671 105.013 35.3671C105.309 35.3671 105.489 35.5728 105.489 35.8557C105.489 36.0228 105.425 36.2028 105.142 36.4342C104.653 36.8328 103.946 37.0642 103.136 37.0642C101.465 37.0642 99.6776 35.9971 99.6776 33.6699C99.6776 31.3557 101.542 30.2371 103.008 30.2371ZM103.008 31.4199C102.159 31.4199 101.195 31.9599 101.079 33.1814H104.91C104.795 31.9599 103.869 31.4199 103.008 31.4199Z" fill="white"/>
<path d="M115.966 30.2499C117.213 30.2499 118.434 31.0342 118.434 33.2199V36.3828C118.434 36.7557 118.126 37.0642 117.766 37.0642C117.393 37.0642 117.084 36.7557 117.084 36.3828V33.2199C117.084 31.9342 116.351 31.4199 115.516 31.4199C114.281 31.4199 113.741 32.5257 113.651 33.0785V33.2199V36.3828C113.651 36.7557 113.356 37.0642 112.983 37.0642C112.61 37.0642 112.301 36.7557 112.301 36.3828V33.2199C112.301 31.9342 111.568 31.4199 110.733 31.4199C109.498 31.4199 108.958 32.5257 108.881 33.0785V36.3828C108.881 36.7557 108.573 37.0642 108.2 37.0642C107.827 37.0642 107.518 36.7557 107.518 36.3828V30.9699C107.518 30.5842 107.827 30.2757 108.2 30.2757C108.573 30.2757 108.881 30.5842 108.881 30.9699V31.8185C108.946 31.3685 109.717 30.2499 111.183 30.2499C112.134 30.2499 113.086 30.7128 113.471 31.9085C113.831 31.1114 114.654 30.2499 115.966 30.2499Z" fill="white"/>
<path d="M123.047 30.2371C124.512 30.2371 126.274 31.3942 126.274 33.4385C126.274 33.9657 125.978 34.1714 125.425 34.1714L121.118 34.1585C121.259 35.3542 122.198 35.9457 123.227 35.9457C123.754 35.9457 124.114 35.8171 124.512 35.5728C124.731 35.4571 124.872 35.3671 125.052 35.3671C125.348 35.3671 125.528 35.5728 125.528 35.8557C125.528 36.0228 125.464 36.2028 125.181 36.4342C124.692 36.8328 123.985 37.0642 123.175 37.0642C121.504 37.0642 119.717 35.9971 119.717 33.6699C119.717 31.3557 121.581 30.2371 123.047 30.2371ZM123.047 31.4199C122.198 31.4199 121.234 31.9599 121.118 33.1814H124.949C124.834 31.9599 123.908 31.4199 123.047 31.4199Z" fill="white"/>
<path d="M131.222 30.2499C132.469 30.2499 133.69 31.0342 133.69 33.2199V36.3828C133.69 36.7557 133.395 37.0642 133.022 37.0642C132.649 37.0642 132.34 36.7557 132.34 36.3828V33.2199C132.34 31.9342 131.607 31.4199 130.772 31.4199C129.537 31.4199 128.997 32.5257 128.92 33.0785V36.3828C128.92 36.7557 128.612 37.0642 128.239 37.0642C127.866 37.0642 127.557 36.7557 127.557 36.3828V30.9699C127.557 30.5842 127.866 30.2757 128.239 30.2757C128.612 30.2757 128.92 30.5842 128.92 30.9699V31.8185C128.985 31.3685 129.756 30.2499 131.222 30.2499Z" fill="white"/>
<path d="M137.932 35.8299C138.254 35.7785 138.485 35.9842 138.485 36.3057C138.485 36.8328 137.881 37.0642 137.161 37.0642C136.389 37.0642 135.631 36.7942 135.631 35.3157V31.4071H135.142C134.808 31.4071 134.589 31.1885 134.589 30.8542C134.589 30.5328 134.808 30.3142 135.142 30.3142H135.631V29.3114C135.631 28.9514 135.939 28.6428 136.299 28.6428C136.672 28.6428 136.981 28.9514 136.981 29.3114V30.3142H137.919C138.254 30.3142 138.485 30.5328 138.485 30.8542C138.485 31.1885 138.254 31.4071 137.919 31.4071H136.981V35.3285C136.981 35.7142 137.135 35.8942 137.431 35.8942C137.598 35.8942 137.791 35.8428 137.932 35.8299Z" fill="white"/>
<path d="M141.848 30.2371C142.774 30.2371 143.571 30.6099 143.982 31.2399C144.059 31.3557 144.162 31.4971 144.162 31.7157C144.162 32.0371 143.918 32.2299 143.609 32.2299C143.404 32.2299 143.211 32.1399 143.018 31.8828C142.761 31.5614 142.401 31.3428 141.874 31.3428C141.231 31.3428 140.845 31.6642 140.845 32.1271C140.845 32.4485 141.025 32.7571 141.706 32.9499L142.504 33.1685C143.596 33.4642 144.419 33.9528 144.419 35.0328C144.419 36.3828 143.146 37.0642 141.809 37.0642C140.691 37.0642 139.906 36.5757 139.572 36.0485C139.508 35.9585 139.302 35.7014 139.302 35.3928C139.302 35.1228 139.469 34.8399 139.829 34.8399C140.125 34.8399 140.279 35.0199 140.408 35.2128C140.729 35.7528 141.256 35.9328 141.809 35.9328C142.555 35.9328 143.069 35.6242 143.069 35.1099C143.069 34.7242 142.799 34.4414 142.156 34.2614L141.295 34.0299C140.048 33.6828 139.508 33.0142 139.508 32.1399C139.508 30.9314 140.601 30.2371 141.848 30.2371Z" fill="white"/>
<path d="M150.617 35.7657H154.217C154.539 35.7657 154.835 36.0357 154.835 36.3828C154.835 36.7299 154.539 36.9999 154.217 36.9999H149.987C149.55 36.9999 149.229 36.6785 149.229 36.2414V28.6814C149.229 28.2828 149.537 27.9614 149.936 27.9614C150.309 27.9614 150.617 28.2828 150.617 28.6814V35.7657Z" fill="white"/>
<path d="M158.888 35.8299C159.209 35.7785 159.441 35.9842 159.441 36.3057C159.441 36.8328 158.836 37.0642 158.116 37.0642C157.345 37.0642 156.586 36.7942 156.586 35.3157V31.4071H156.098C155.763 31.4071 155.545 31.1885 155.545 30.8542C155.545 30.5328 155.763 30.3142 156.098 30.3142H156.586V29.3114C156.586 28.9514 156.895 28.6428 157.255 28.6428C157.628 28.6428 157.936 28.9514 157.936 29.3114V30.3142H158.875C159.209 30.3142 159.441 30.5328 159.441 30.8542C159.441 31.1885 159.209 31.4071 158.875 31.4071H157.936V35.3285C157.936 35.7142 158.091 35.8942 158.386 35.8942C158.553 35.8942 158.746 35.8428 158.888 35.8299Z" fill="white"/>
<path d="M166.136 27.8199C166.509 27.8199 166.831 28.1285 166.831 28.5014V36.3957C166.831 36.7685 166.509 37.0771 166.136 37.0771C165.763 37.0771 165.455 36.7685 165.455 36.3957V35.7014C165.365 36.2799 164.568 37.0899 163.346 37.0899C161.919 37.0899 160.209 35.9842 160.209 33.6571C160.209 31.3685 161.932 30.2371 163.346 30.2371C164.298 30.2371 165.121 30.7257 165.455 31.4714V30.9571C165.455 30.9185 165.455 30.8671 165.468 30.8285V28.5014C165.468 28.1285 165.776 27.8199 166.136 27.8199ZM163.565 35.9199C164.439 35.9199 165.519 35.2514 165.519 33.6571C165.519 32.0499 164.439 31.4071 163.565 31.4071C162.626 31.4071 161.572 32.1399 161.572 33.6571C161.572 35.1871 162.626 35.9199 163.565 35.9199Z" fill="white"/>
<path d="M168.929 37.0385C168.479 37.0385 168.119 36.6785 168.119 36.2285C168.119 35.7914 168.479 35.4314 168.929 35.4314C169.354 35.4314 169.714 35.7914 169.714 36.2285C169.714 36.6785 169.354 37.0385 168.929 37.0385Z" fill="white"/>
<path d="M72.0729 17.7285C72.0729 18.7843 71.1496 19.6808 69.9627 19.6808C69.0126 19.6808 68.2218 19.1268 67.8792 18.2825L66.8769 15.9087H60.0446L59.0423 18.2825C58.673 19.1268 57.9076 19.6808 56.9588 19.6808C55.7719 19.6808 54.8486 18.7843 54.8486 17.7285C54.8486 17.2802 54.9811 16.832 55.139 16.4626L61.3639 2.58775C61.8122 1.47979 62.5241 0.978027 63.4474 0.978027C64.3707 0.978027 65.0826 1.47979 65.5576 2.58775L71.7825 16.4626C71.9404 16.832 72.0729 17.2802 72.0729 17.7285ZM65.4251 12.5058L63.4461 7.81041L61.4671 12.5058H65.4239H65.4251Z" fill="#0B5DD3"/>
<path d="M75.37 19.7063C74.2353 19.7063 73.2598 18.783 73.2598 17.6228V2.85008C73.2598 1.68991 74.2353 0.739868 75.37 0.739868C76.5047 0.739868 77.4802 1.68991 77.4802 2.85008V17.6228C77.4802 18.783 76.5047 19.7063 75.37 19.7063Z" fill="#0B5DD3"/>
<path d="M93.3612 12.716C93.3612 17.5438 89.9317 19.7598 87.0306 19.7598C85.1573 19.7598 83.9704 18.8097 83.5743 18.1246V22.7143C83.5743 23.8745 82.572 24.7978 81.4373 24.7978C80.3027 24.7978 79.3271 23.8745 79.3271 22.7143V7.86262C79.3271 6.72792 80.3829 5.77915 81.4908 5.77915C82.5988 5.77915 83.6011 6.72919 83.6011 7.86262V7.62574C83.9436 6.70245 85.2362 5.7002 87.0306 5.7002C89.8795 5.7002 93.3612 8.02181 93.3612 12.7172V12.716ZM89.1408 12.716C89.1408 10.4733 87.7425 9.2864 86.2385 9.2864C85.0783 9.2864 83.4164 10.1307 83.4164 12.716C83.4164 15.3012 85.0783 16.1723 86.2385 16.1723C87.7425 16.1723 89.1408 14.9854 89.1408 12.716Z" fill="#0B5DD3"/>
<path d="M108.081 12.2677V17.6228C108.081 18.783 107.131 19.7063 105.97 19.7063C104.81 19.7063 103.887 18.783 103.887 17.6228V12.2677C103.887 10.2097 102.937 9.2864 101.539 9.2864C99.3748 9.2864 98.9011 11.4756 98.9011 11.7659V17.6215C98.9011 18.7817 97.9256 19.705 96.7909 19.705C95.6562 19.705 94.6807 18.7817 94.6807 17.6215V2.85008C94.6807 1.68991 95.6562 0.739868 96.7909 0.739868C97.9256 0.739868 98.9011 1.68991 98.9011 2.85008V8.73242C98.98 7.75691 100.484 5.72566 103.175 5.72566C105.866 5.72566 108.082 7.62447 108.082 12.2677H108.081Z" fill="#0B5DD3"/>
<path d="M123.434 7.86255V17.6495C123.434 18.8096 122.405 19.7329 121.27 19.7329C120.294 19.7329 119.423 19.0465 119.212 18.0978C118.816 18.7842 117.656 19.7597 115.73 19.7597C112.828 19.7597 109.399 17.5438 109.399 12.7159C109.399 7.88802 112.881 5.69885 115.73 5.69885C117.524 5.69885 118.817 6.70111 119.16 7.6244V7.86127C119.16 6.72658 120.135 5.77781 121.27 5.77781C122.405 5.77781 123.434 6.72785 123.434 7.86127V7.86255ZM119.344 12.7159C119.344 10.1307 117.682 9.28633 116.522 9.28633C115.018 9.28633 113.62 10.4732 113.62 12.7159C113.62 14.9586 115.018 16.1722 116.522 16.1722C117.682 16.1722 119.344 15.3546 119.344 12.7159Z" fill="#0B5DD3"/>
<path d="M134.487 12.3733C134.487 13.3488 133.669 14.1142 132.773 14.1142H126.627C125.703 14.1142 124.886 13.3488 124.886 12.3733C124.886 11.3978 125.703 10.6324 126.627 10.6324H132.773C133.669 10.6324 134.487 11.4233 134.487 12.3733Z" fill="white"/>
<path d="M149.945 7.22963C149.945 10.5267 147.281 13.2699 143.166 13.2699H140.264V17.6227C140.264 18.8097 139.314 19.7864 138.127 19.7864C136.94 19.7864 135.938 18.8109 135.938 17.6227V3.5097C135.938 2.11138 136.94 1.10913 138.338 1.10913H143.166C147.281 1.10913 149.945 3.90576 149.945 7.22963ZM145.751 7.22963C145.751 5.25059 144.432 4.80231 142.929 4.80231H140.265V9.57671H142.929C144.433 9.57671 145.751 9.18064 145.751 7.22835V7.22963Z" fill="white"/>
<path d="M164.533 12.2677V17.6228C164.533 18.783 163.583 19.7063 162.422 19.7063C161.262 19.7063 160.339 18.783 160.339 17.6228V12.2677C160.339 10.2097 159.389 9.2864 157.991 9.2864C155.827 9.2864 155.353 11.4756 155.353 11.7659V17.6215C155.353 18.7817 154.378 19.705 153.243 19.705C152.108 19.705 151.133 18.7817 151.133 17.6215V2.85008C151.133 1.68991 152.108 0.739868 153.243 0.739868C154.378 0.739868 155.353 1.68991 155.353 2.85008V8.73242C155.432 7.75691 156.936 5.72566 159.627 5.72566C162.318 5.72566 164.534 7.62447 164.534 12.2677H164.533Z" fill="white"/>
<path d="M166.379 2.55966C166.379 1.42496 167.381 0.476196 168.516 0.476196C169.651 0.476196 170.653 1.42624 170.653 2.55966C170.653 3.69309 169.651 4.61765 168.516 4.61765C167.381 4.61765 166.379 3.66761 166.379 2.55966ZM170.626 7.91477V17.596C170.626 18.7829 169.651 19.733 168.516 19.733C167.381 19.733 166.406 18.7829 166.406 17.596V7.91477C166.406 6.72786 167.381 5.77782 168.516 5.77782C169.651 5.77782 170.626 6.72786 170.626 7.91477Z" fill="white"/>
<path d="M10.5733 20.5353C10.53 20.152 10.3861 19.8782 10.139 19.7152C9.89067 19.5535 9.52517 19.5662 9.03996 19.7559C8.40957 20.0005 7.89762 20.4475 7.50283 21.0931C7.10805 21.7401 6.82533 22.536 6.65722 23.4848C6.55916 24.0413 6.54643 24.5049 6.62284 24.8767C6.69797 25.2486 6.84825 25.4918 7.07366 25.6039C7.29907 25.716 7.58307 25.7058 7.92437 25.5733C8.65536 25.2881 9.23099 24.8105 9.65125 24.1406C10.069 23.4708 10.3542 22.7156 10.5045 21.8776C10.5949 21.3682 10.6178 20.9212 10.5745 20.5353H10.5733ZM47.3166 3.77847C47.3166 2.96725 47.0581 2.1522 46.5258 1.46705C45.0969 -0.373171 42.3563 -0.504343 40.7669 1.19834C39.3686 2.69472 38.1079 4.25859 36.9935 5.86703C36.8725 5.69511 36.7503 5.52701 36.6191 5.36018C36.2664 4.90681 35.8843 4.484 35.4781 4.09176C35.4768 4.09558 35.4755 4.09813 35.473 4.10322C35.2157 4.54768 34.9024 4.93737 34.5357 5.27358C34.1676 5.60978 33.7881 5.8543 33.3959 6.00712C32.7935 6.24272 32.321 6.2147 31.9823 5.92434C31.6422 5.63398 31.5314 5.15641 31.6499 4.49037C31.7645 3.8396 32.0727 3.20412 32.5719 2.58265C32.684 2.44256 32.7986 2.31266 32.9183 2.19295C26.7621 -1.26845 17.4133 0.0216173 9.79643 5.95236C1.22697 12.6243 -2.18604 22.8633 1.42946 29.9033L3.01625 20.9887C3.30534 19.3662 4.13312 18.2889 5.50342 17.7553C6.14909 17.5031 6.60373 17.5235 6.87245 17.8177C7.13988 18.1093 7.21502 18.5932 7.09404 19.2669L7.13861 19.2504C7.45317 18.4277 7.99314 17.6865 8.75724 17.0281C9.52135 16.3684 10.2842 15.8908 11.0445 15.5954C11.8404 15.2846 12.5357 15.1611 13.1279 15.2197C13.7201 15.2808 14.1888 15.5101 14.5326 15.9087C14.8765 16.306 15.0942 16.874 15.1897 17.6101C15.284 18.3449 15.2407 19.2274 15.0586 20.2539C14.9363 20.9352 14.7185 21.6904 14.4027 22.5169C14.0869 23.3434 13.6692 24.1776 13.1483 25.0181C12.6274 25.8599 12.0009 26.6253 11.2635 27.3181C10.5274 28.0096 9.70601 28.533 8.80054 28.8845C7.39459 29.4334 6.43563 29.2016 5.91986 28.1917L5.87656 28.2082L5.13538 32.3688C5.03859 32.9177 4.87685 33.4054 4.6489 33.8372C10.6701 38.6459 21.1116 37.7252 29.4671 31.2188C30.2057 30.6445 30.9061 30.0421 31.5658 29.4181C31.5951 29.3901 31.6244 29.3633 31.6537 29.3353C32.223 30.5209 32.9183 31.6493 33.7435 32.7101C35.962 35.5589 38.8936 37.622 42.2722 38.907C43.6565 39.4342 44.683 37.6055 43.5126 36.6975C42.5792 35.9716 41.7323 35.1323 40.9885 34.1785C35.2399 26.7946 37.6698 15.0567 46.1946 6.48469C46.9346 5.74095 47.3153 4.76163 47.3153 3.77847H47.3166ZM27.7848 19.1765C27.6383 19.9992 27.3199 20.6996 26.8296 21.2765C26.3393 21.8534 25.7459 22.2788 25.0505 22.5488C24.3628 22.8175 23.8458 22.8238 23.5007 22.5679C23.1543 22.3132 23.055 21.777 23.2001 20.9632L24.0534 16.1659C24.1769 15.4782 24.1298 15.0032 23.912 14.7447C23.6943 14.4874 23.3046 14.4683 22.7391 14.6874C22.1877 14.9026 21.728 15.2872 21.3599 15.8424C20.9919 16.3977 20.7397 17.0599 20.6022 17.8278L19.8088 22.2826C19.6649 23.0964 19.3439 23.7955 18.8485 24.3788C18.3544 24.9621 17.7635 25.3887 17.0745 25.6561C16.625 25.8319 16.2442 25.8943 15.9284 25.8459C15.6138 25.7975 15.3922 25.6268 15.2662 25.3339C15.1401 25.0397 15.1261 24.6195 15.2229 24.0706L17.5687 10.8936C17.7151 10.0709 18.031 9.37174 18.5187 8.79611C19.0065 8.22048 19.5999 7.79513 20.3016 7.52132C21.0046 7.24752 21.5255 7.23988 21.8642 7.4984C22.2017 7.75692 22.2985 8.29307 22.1533 9.10939L21.3943 13.3757L21.4376 13.3591C21.9661 12.5479 22.543 11.8691 23.1657 11.324C23.7872 10.779 24.48 10.3574 25.2403 10.0607C26.2617 9.6621 27.0729 9.54366 27.6702 9.70539C28.2687 9.86586 28.6559 10.2543 28.8316 10.8719C29.0086 11.4883 29.0112 12.2741 28.8418 13.2305L27.7835 19.1778L27.7848 19.1765ZM35.0743 8.53631L33.5831 16.9173C33.4379 17.7323 33.1208 18.4302 32.6318 19.0109C32.1427 19.5917 31.5505 20.017 30.8539 20.2895C30.165 20.5583 29.6466 20.5646 29.3002 20.3099C28.9526 20.0552 28.8532 19.5191 28.9972 18.7053L30.4897 10.3243C30.6349 9.50927 30.9507 8.81266 31.4397 8.23067C31.9288 7.64995 32.5235 7.22205 33.229 6.94824C33.9333 6.67444 34.4529 6.66552 34.7891 6.92532C35.124 7.18512 35.2195 7.72254 35.0743 8.53759V8.53631Z" fill="#0B5DD3"/>
</g>
<defs>
<clipPath id="clip0_379_1349">
<rect width="170.906" height="39" fill="white"/>
</clipPath>
</defs>
</svg>
