<svg width="89" height="33" viewBox="0 0 89 33" fill="none" xmlns="http://www.w3.org/2000/svg">
<g id="american-petroleum-institute-2020- 1">
<path id="Vector" d="M59.8857 4.9815L59.1535 2.8851H59.1391L58.3997 4.98008L59.8857 4.9815ZM58.8457 2.06421C58.86 2.02288 58.8802 1.9958 58.9277 1.9958H59.3736C59.4211 1.9958 59.4484 2.0243 59.4613 2.06421L61.058 6.54205C61.0724 6.58196 61.0508 6.60903 61.0091 6.60903H60.5301C60.4826 6.60903 60.4553 6.58908 60.4409 6.54205L60.0842 5.53732H58.2012L57.8459 6.54205C57.8243 6.58908 57.797 6.60903 57.7553 6.60903H57.2763C57.236 6.60903 57.2159 6.58196 57.2288 6.54205L58.8457 2.06421ZM65.9748 6.60903C65.933 6.60903 65.9057 6.58196 65.9057 6.54205V4.64089C65.9057 4.11786 65.6669 3.81287 65.1735 3.81287C64.7348 3.81287 64.4198 4.12498 64.4198 4.60669V6.54063C64.4198 6.58053 64.3924 6.60761 64.3521 6.60761H63.9134C63.8717 6.60761 63.8444 6.58053 63.8444 6.54063V4.64089C63.8444 4.11786 63.6056 3.81287 63.1122 3.81287C62.6663 3.81287 62.3584 4.12498 62.3584 4.60669V6.54063C62.3584 6.58053 62.3311 6.60761 62.2908 6.60761H61.8521C61.8104 6.60761 61.783 6.58053 61.783 6.54063V3.42808C61.783 3.38533 61.8118 3.35967 61.8521 3.35967H62.2908C62.3311 3.35967 62.3584 3.38675 62.3584 3.42808V3.72594H62.3656C62.5238 3.47511 62.8389 3.28414 63.2834 3.28414C63.7278 3.28414 64.0573 3.46799 64.2428 3.79435H64.2486C64.4744 3.48081 64.8096 3.28557 65.3102 3.28557C66.0711 3.28557 66.4811 3.76584 66.4811 4.5055V6.54205C66.4811 6.58196 66.4538 6.60903 66.4135 6.60903H65.9748ZM69.522 4.7036C69.5508 4.7036 69.5637 4.68935 69.5637 4.66227C69.5677 4.53835 69.5512 4.41463 69.5148 4.296C69.407 3.96964 69.1322 3.78722 68.7625 3.78722C68.3928 3.78722 68.1195 3.96964 68.0088 4.296C67.9729 4.41471 67.9569 4.53843 67.9613 4.66227C67.9613 4.69077 67.9757 4.7036 68.0016 4.7036H69.522ZM67.4823 5.80097C67.4005 5.53563 67.3631 5.25882 67.3715 4.9815C67.3715 4.60811 67.406 4.35729 67.4751 4.16061C67.6592 3.59625 68.1397 3.28414 68.7625 3.28414C69.3926 3.28414 69.8644 3.60338 70.05 4.16061C70.119 4.37011 70.1535 4.59386 70.1535 5.08982C70.1535 5.12972 70.1248 5.1568 70.0773 5.1568H68.0016C67.9742 5.1568 67.9613 5.17105 67.9613 5.19955C67.9613 5.37485 67.9814 5.48458 68.0159 5.59147C68.1454 5.96486 68.4403 6.15441 68.8445 6.15441C69.2343 6.15441 69.5091 5.99907 69.6875 5.79527C69.7205 5.76107 69.7551 5.75537 69.7882 5.78102L70.0701 6.03185C70.1046 6.06035 70.1046 6.09313 70.0773 6.12733C69.8169 6.45227 69.3724 6.68314 68.797 6.68314C68.1325 6.68314 67.6606 6.36391 67.4823 5.80097ZM71.1461 6.60903C71.1044 6.60903 71.0785 6.58196 71.0785 6.54205V3.42808C71.0785 3.38533 71.1044 3.35967 71.1461 3.35967H71.5848C71.6251 3.35967 71.6524 3.38675 71.6524 3.42808V3.76014H71.6596C71.8035 3.48081 72.0912 3.28557 72.5299 3.28557C72.7759 3.28295 73.0143 3.36964 73.2002 3.52927C73.2347 3.56347 73.2419 3.59055 73.2146 3.62475L72.9614 3.95682C72.9327 3.98959 72.8996 3.99672 72.8651 3.97107C72.7153 3.87095 72.5393 3.81645 72.3587 3.8143C71.8581 3.8143 71.6539 4.20194 71.6539 4.76488V6.54205C71.6539 6.58338 71.6251 6.61046 71.5848 6.61046L71.1461 6.60903ZM73.954 6.60903C73.9137 6.60903 73.8849 6.58196 73.8849 6.54205V3.42808C73.8849 3.38533 73.9137 3.35967 73.954 3.35967H74.3927C74.433 3.35967 74.4603 3.38675 74.4603 3.42808V6.54205C74.4603 6.58196 74.433 6.60903 74.3927 6.60903H73.954ZM73.9396 2.62714C73.8993 2.62714 73.872 2.59864 73.872 2.55874V2.06421C73.872 2.02288 73.8993 1.9958 73.9396 1.9958H74.4057C74.4474 1.9958 74.4747 2.02288 74.4747 2.06421V2.55874C74.4747 2.60007 74.4459 2.62714 74.4057 2.62714H73.9396ZM75.4874 4.16061C75.673 3.59768 76.152 3.28414 76.782 3.28414C77.2826 3.28414 77.6653 3.49506 77.9055 3.83425C77.9256 3.86846 77.9256 3.89553 77.8853 3.92974L77.5833 4.17344C77.5487 4.20194 77.5156 4.20194 77.4883 4.16631C77.2956 3.92831 77.1114 3.8143 76.7835 3.8143C76.4267 3.8143 76.1592 3.98247 76.0498 4.32308C75.9906 4.53692 75.9649 4.7585 75.9736 4.98008C75.9736 5.27224 75.9937 5.47603 76.0498 5.64563C76.1592 5.98482 76.4267 6.15441 76.7835 6.15441C77.1114 6.15441 77.2956 6.03897 77.4883 5.80097C77.5156 5.76819 77.5487 5.76819 77.5833 5.79384L77.8853 6.03897C77.9256 6.07317 77.9256 6.10025 77.9055 6.13446C77.6653 6.47364 77.2826 6.68457 76.7835 6.68457C76.152 6.68457 75.673 6.37103 75.4888 5.8081C75.4132 5.53917 75.3783 5.2606 75.3853 4.9815C75.3853 4.62094 75.427 4.35586 75.4874 4.15919M80.6386 5.55727V5.19813C80.6386 5.17105 80.6242 5.15822 80.5969 5.15822H79.9395C79.3713 5.15822 79.1253 5.32069 79.1253 5.68696C79.1253 6.01902 79.3698 6.19574 79.81 6.19574C80.3236 6.19574 80.6386 5.95774 80.6386 5.55727ZM80.7206 6.60903C80.6789 6.60903 80.6515 6.58196 80.6515 6.54205V6.25702H80.6443C80.4947 6.50072 80.1725 6.68457 79.6719 6.68457C79.0491 6.68457 78.5701 6.36533 78.5701 5.70691C78.5701 5.02283 79.0491 4.7036 79.8503 4.7036H80.5983C80.6242 4.7036 80.6386 4.68935 80.6386 4.66227V4.42427C80.6386 3.97677 80.4602 3.78722 79.8503 3.78722C79.5672 3.77423 79.2879 3.85496 79.0563 4.01667C79.0217 4.04518 78.9815 4.04518 78.9599 4.00955L78.7758 3.69744C78.7556 3.65753 78.7614 3.63045 78.7901 3.60338C79.0347 3.41241 79.4188 3.28414 79.905 3.28414C80.8371 3.28414 81.1924 3.58913 81.1924 4.39006V6.54205C81.1924 6.58196 81.1651 6.60903 81.1248 6.60903H80.7206ZM84.4189 6.60903C84.3772 6.60903 84.3513 6.58196 84.3513 6.54205V4.64089C84.3513 4.11786 84.1111 3.81287 83.6177 3.81287C83.1717 3.81287 82.8639 4.12498 82.8639 4.60669V6.54063C82.8639 6.58053 82.8366 6.60761 82.7963 6.60761H82.3576C82.3158 6.60761 82.2885 6.58053 82.2885 6.54063V3.42808C82.2885 3.38533 82.3173 3.35967 82.3576 3.35967H82.7963C82.8366 3.35967 82.8639 3.38675 82.8639 3.42808V3.72594H82.8711C83.0293 3.47511 83.3429 3.28414 83.7888 3.28414C84.5009 3.28414 84.9252 3.76584 84.9252 4.5055V6.54205C84.9252 6.58196 84.8979 6.60903 84.8576 6.60903H84.4189ZM60.0396 10.4413C60.0396 9.94105 59.7044 9.62894 59.129 9.62894H58.0876C58.0603 9.62894 58.0473 9.6432 58.0473 9.66885V11.2151C58.0473 11.2436 58.0617 11.2565 58.0876 11.2565H59.129C59.7044 11.2565 60.0396 10.9429 60.0396 10.4413ZM57.5064 13.6778C57.4647 13.6778 57.4374 13.6522 57.4374 13.6108V9.13299C57.4374 9.09166 57.4647 9.06458 57.5064 9.06458H59.1636C60.0597 9.06458 60.6423 9.60757 60.6423 10.4427C60.6423 11.2779 60.0597 11.8194 59.1636 11.8194H58.0876C58.0603 11.8194 58.0473 11.8337 58.0473 11.8607V13.6108C58.0473 13.6522 58.0185 13.6792 57.9783 13.6792L57.5064 13.6778ZM63.3884 11.7724C63.4171 11.7724 63.4301 11.7581 63.4301 11.7311C63.434 11.6071 63.4175 11.4834 63.3812 11.3648C63.2719 11.0399 62.9985 10.856 62.6289 10.856C62.2592 10.856 61.9844 11.0399 61.8751 11.3648C61.8395 11.4836 61.8235 11.6072 61.8276 11.7311C61.8276 11.7596 61.842 11.7724 61.8679 11.7724H63.3884ZM61.3472 12.8712C61.2658 12.6053 61.2288 12.328 61.2378 12.0503C61.2378 11.6769 61.2724 11.4261 61.34 11.2294C61.527 10.6665 62.0046 10.3543 62.6289 10.3543C63.2589 10.3543 63.7307 10.6736 63.9163 11.2294C63.9839 11.4403 64.0184 11.6641 64.0184 12.1586C64.0184 12.1999 63.9911 12.227 63.9436 12.227H61.8679C61.8406 12.227 61.8276 12.2413 61.8276 12.2669C61.8276 12.4436 61.8478 12.5519 61.8823 12.6617C62.0117 13.0336 62.3066 13.2246 62.7108 13.2246C63.1007 13.2246 63.3754 13.0679 63.5538 12.8655C63.5869 12.8313 63.6214 12.8227 63.6545 12.8512L63.9364 13.1021C63.971 13.1291 63.971 13.1619 63.9436 13.1961C63.6833 13.5225 63.2388 13.7519 62.6634 13.7519C61.9988 13.7519 61.527 13.4341 61.3472 12.8712ZM65.8956 13.7134C65.2584 13.7134 65.0124 13.4284 65.0124 12.7899V10.9315C65.0124 10.903 64.998 10.8902 64.9707 10.8902H64.6974C64.6557 10.8902 64.6283 10.8631 64.6283 10.8218V10.4983C64.6283 10.457 64.6557 10.4299 64.6974 10.4299H64.9707C64.9995 10.4299 65.0124 10.4156 65.0124 10.39V9.47218C65.0124 9.43085 65.0397 9.40377 65.08 9.40377H65.5188C65.5605 9.40377 65.5878 9.43227 65.5878 9.47218V10.3886C65.5878 10.4156 65.6022 10.4285 65.6281 10.4285H66.1488C66.1905 10.4285 66.2179 10.457 66.2179 10.4969V10.8218C66.2179 10.8646 66.1891 10.8902 66.1488 10.8902H65.6281C65.6007 10.8902 65.5878 10.9045 65.5878 10.9315V12.77C65.5878 13.0949 65.7101 13.1833 66.005 13.1833H66.1488C66.1905 13.1833 66.2179 13.2118 66.2179 13.2517V13.645C66.2179 13.6864 66.1891 13.7134 66.1488 13.7134H65.8956ZM67.1759 13.6792C67.1356 13.6792 67.1083 13.6507 67.1083 13.6108V10.4983C67.1083 10.457 67.1356 10.4299 67.1759 10.4299H67.6146C67.6549 10.4299 67.6822 10.4584 67.6822 10.4983V10.8304H67.6894C67.8333 10.5524 68.121 10.3558 68.5597 10.3558C68.8057 10.3532 69.0441 10.4398 69.23 10.5995C69.2645 10.6337 69.2717 10.6608 69.2444 10.695L68.9912 11.0256C68.9639 11.0598 68.9294 11.0669 68.8949 11.0399C68.7452 10.9397 68.5691 10.8852 68.3885 10.8831C67.8879 10.8831 67.6837 11.2707 67.6837 11.8337V13.6123C67.6837 13.6522 67.6549 13.6792 67.6146 13.6792H67.1759ZM71.7373 12.7158C71.792 12.5391 71.8121 12.3624 71.8121 12.0503C71.8121 11.7382 71.792 11.5686 71.7373 11.3919C71.628 11.0669 71.3604 10.8831 70.9979 10.8831C70.6354 10.8831 70.3679 11.0669 70.2585 11.3919C70.1978 11.6059 70.1721 11.8282 70.1823 12.0503C70.1823 12.3624 70.2039 12.5391 70.2585 12.7158C70.3679 13.0408 70.6354 13.2246 70.9979 13.2246C71.3604 13.2246 71.628 13.0408 71.7373 12.7158ZM69.7033 12.8783C69.619 12.6111 69.582 12.3314 69.594 12.0517C69.594 11.6769 69.6285 11.4531 69.7033 11.2294C69.8817 10.6736 70.3607 10.3543 70.9979 10.3543C71.6352 10.3543 72.1142 10.6736 72.2925 11.2294C72.3673 11.4531 72.4019 11.6769 72.4019 12.0503C72.4019 12.4308 72.3673 12.6546 72.2925 12.8783C72.1142 13.4284 71.6352 13.7534 70.9979 13.7534C70.3607 13.7534 69.8817 13.4284 69.7033 12.8783ZM74.1137 13.7134C73.5383 13.7134 73.3124 13.4427 73.3124 12.8584V9.13299C73.3124 9.09308 73.3412 9.06458 73.3815 9.06458H73.8202C73.8605 9.06458 73.8878 9.09308 73.8878 9.13299V12.8241C73.8878 13.0949 73.9914 13.1833 74.2172 13.1833H74.3467C74.3884 13.1833 74.4157 13.2118 74.4157 13.2517V13.645C74.4157 13.6864 74.387 13.7134 74.3467 13.7134H74.1137ZM77.1762 11.7724C77.2035 11.7724 77.2164 11.7581 77.2164 11.7311C77.2209 11.6072 77.2049 11.4835 77.169 11.3648C77.0582 11.0399 76.7849 10.856 76.4152 10.856C76.0455 10.856 75.7722 11.0399 75.6629 11.3648C75.6266 11.4834 75.61 11.6071 75.614 11.7311C75.614 11.7596 75.6284 11.7724 75.6557 11.7724H77.1762ZM75.135 12.8712C75.0532 12.6054 75.0163 12.328 75.0256 12.0503C75.0256 11.6769 75.0602 11.4261 75.1263 11.2294C75.3133 10.6665 75.7924 10.3543 76.4152 10.3543C77.0453 10.3543 77.5185 10.6736 77.7027 11.2294C77.7717 11.4403 77.8062 11.6641 77.8062 12.1586C77.8062 12.1999 77.7775 12.227 77.73 12.227H75.6557C75.6269 12.227 75.614 12.2413 75.614 12.2669C75.614 12.4436 75.6341 12.5519 75.6686 12.6617C75.7981 13.0336 76.093 13.2246 76.4972 13.2246C76.8885 13.2246 77.1618 13.0679 77.3402 12.8655C77.3747 12.8313 77.4092 12.8227 77.4423 12.8512L77.7242 13.1021C77.7573 13.1291 77.7573 13.1619 77.73 13.1961C77.4711 13.5225 77.0251 13.7519 76.4497 13.7519C75.7852 13.7519 75.3133 13.4341 75.135 12.8712ZM80.7911 13.6792C80.7508 13.6792 80.7235 13.6507 80.7235 13.6108V13.3059H80.7163C80.5451 13.5766 80.2444 13.7534 79.8187 13.7534C79.0994 13.7534 78.6823 13.2645 78.6823 12.5263V10.4969C78.6823 10.4555 78.711 10.4285 78.7513 10.4285H79.19C79.2303 10.4285 79.2576 10.457 79.2576 10.4969V12.3895C79.2576 12.9196 79.4979 13.2246 79.9841 13.2246C80.43 13.2246 80.7235 12.9111 80.7235 12.4237V10.4969C80.7235 10.4555 80.7508 10.4285 80.7925 10.4285H81.2298C81.2715 10.4285 81.2988 10.457 81.2988 10.4969V13.6108C81.2988 13.6522 81.2715 13.6792 81.2298 13.6792H80.7911ZM86.614 13.6792C86.5723 13.6792 86.545 13.6507 86.545 13.6108V11.7111C86.545 11.1881 86.3047 10.8845 85.8113 10.8845C85.3741 10.8845 85.059 11.1952 85.059 11.6769V13.6108C85.059 13.6522 85.0303 13.6792 84.99 13.6792H84.5512C84.511 13.6792 84.4836 13.6507 84.4836 13.6108V11.7111C84.4836 11.1881 84.2434 10.8845 83.75 10.8845C83.3041 10.8845 82.9977 11.1952 82.9977 11.6769V13.6108C82.9977 13.6522 82.9689 13.6792 82.9286 13.6792H82.4913C82.4482 13.6792 82.4223 13.6507 82.4223 13.6108V10.4983C82.4223 10.457 82.4496 10.4299 82.4913 10.4299H82.9286C82.9704 10.4299 82.9977 10.4584 82.9977 10.4983V10.7976H83.0034C83.1617 10.5453 83.4781 10.3558 83.9212 10.3558C84.3642 10.3558 84.6951 10.5382 84.8806 10.8646H84.8864C85.1137 10.551 85.4488 10.3558 85.9494 10.3558C86.709 10.3558 87.1204 10.8375 87.1204 11.5771V13.6123C87.1204 13.6536 87.0916 13.6807 87.0513 13.6807L86.614 13.6792ZM57.505 20.949H57.9783C58.0185 20.949 58.0473 20.9219 58.0473 20.882V16.4027C58.0473 16.3628 58.0185 16.3357 57.9783 16.3357H57.505C57.4647 16.3357 57.4374 16.3628 57.4374 16.4027V20.882C57.4374 20.9219 57.4647 20.949 57.505 20.949ZM59.2527 20.949H59.69C59.7318 20.949 59.7591 20.9219 59.7591 20.882V18.9481C59.7591 18.4663 60.0669 18.1542 60.5114 18.1542C61.0048 18.1542 61.245 18.4592 61.245 18.9808V20.882C61.245 20.9219 61.2724 20.949 61.3141 20.949H61.7514C61.7931 20.949 61.8204 20.9219 61.8204 20.882V18.8454C61.8204 18.1058 61.3961 17.6241 60.684 17.6241C60.2381 17.6241 59.9216 17.8151 59.7663 18.0659H59.7591V17.7666C59.7591 17.7267 59.7303 17.6996 59.69 17.6996H59.2527C59.211 17.6996 59.1837 17.7267 59.1837 17.7666V20.882C59.1837 20.9219 59.211 20.949 59.2527 20.949ZM64.0386 21.0245C64.8959 21.0245 65.362 20.597 65.362 19.9585C65.362 19.4369 65.0397 19.1034 64.3752 19.0421L64.0328 19.0093C63.5466 18.9609 63.3884 18.8241 63.3884 18.5675C63.3884 18.3025 63.6013 18.12 64.0112 18.12C64.3478 18.12 64.683 18.2483 64.8959 18.3851C64.9304 18.4051 64.9635 18.4051 64.9908 18.3709L65.2239 18.0787C65.2454 18.0445 65.2454 18.0032 65.2095 17.9832C64.8699 17.7441 64.4623 17.6184 64.0458 17.6241C63.2719 17.6241 62.8274 17.9975 62.8274 18.6146C62.8274 19.1433 63.1625 19.4625 63.8055 19.5309L64.1551 19.5651C64.6701 19.6193 64.7923 19.7618 64.7923 20.0198C64.7923 20.3105 64.5535 20.5143 64.0731 20.5143C63.6761 20.5143 63.3064 20.3518 63.0604 20.1409C63.0542 20.1344 63.0467 20.1292 63.0385 20.1257C63.0302 20.1221 63.0212 20.1203 63.0122 20.1203C63.0032 20.1203 62.9942 20.1221 62.986 20.1257C62.9777 20.1292 62.9702 20.1344 62.964 20.1409L62.6835 20.4402C62.6772 20.4463 62.6721 20.4536 62.6687 20.4617C62.6652 20.4698 62.6634 20.4785 62.6634 20.4872C62.6634 20.496 62.6652 20.5047 62.6687 20.5128C62.6721 20.5208 62.6772 20.5281 62.6835 20.5343C62.9496 20.7651 63.4028 21.0245 64.0386 21.0245ZM66.0179 18.1599H66.2912C66.32 18.1599 66.3344 18.1742 66.3344 18.2013V20.0611C66.3344 20.6981 66.5789 20.9832 67.2176 20.9832H67.4708C67.511 20.9832 67.5384 20.9561 67.5384 20.9148V20.5214C67.5384 20.4815 67.511 20.4544 67.4708 20.4544H67.3269C67.032 20.4544 66.9098 20.3661 66.9098 20.0411V18.2027C66.9098 18.1742 66.9227 18.1599 66.95 18.1599H67.4708C67.511 18.1599 67.5384 18.1329 67.5384 18.093V17.7666C67.5384 17.7267 67.511 17.6996 67.4708 17.6996H66.95C66.9213 17.6996 66.9098 17.6854 66.9098 17.6583V16.7419C66.9098 16.702 66.881 16.6749 66.8407 16.6749H66.402C66.393 16.6745 66.384 16.676 66.3756 16.6792C66.3672 16.6824 66.3596 16.6873 66.3533 16.6936C66.3469 16.6999 66.3419 16.7075 66.3387 16.7158C66.3354 16.7241 66.334 16.733 66.3344 16.7419V17.6583C66.3344 17.6868 66.32 17.6996 66.2912 17.6996H66.0179C65.9776 17.6996 65.9503 17.7267 65.9503 17.7666V18.093C65.9503 18.1329 65.9776 18.1599 66.0179 18.1599ZM68.9366 17.6996H68.4978C68.4561 17.6996 68.4302 17.7267 68.4302 17.7666V20.882C68.4302 20.9219 68.4561 20.949 68.4978 20.949H68.9366C68.9769 20.949 69.0042 20.9219 69.0042 20.882V17.7666C69.0042 17.7267 68.9769 17.6996 68.9366 17.6996ZM68.4835 16.9657H68.9495C68.9898 16.9657 69.0186 16.9386 69.0186 16.8987V16.4027C69.0186 16.3628 68.9898 16.3357 68.9495 16.3357H68.4835C68.4432 16.3357 68.4158 16.3628 68.4158 16.4027V16.8987C68.4158 16.9386 68.4432 16.9657 68.4835 16.9657ZM69.8817 18.1599H70.155C70.1837 18.1599 70.1967 18.1742 70.1967 18.2013V20.0611C70.1967 20.6981 70.4427 20.9832 71.0799 20.9832H71.3331C71.3748 20.9832 71.4021 20.9561 71.4021 20.9148V20.5214C71.4021 20.4815 71.3734 20.4544 71.3331 20.4544H71.1892C70.8943 20.4544 70.7721 20.3661 70.7721 20.0411V18.2027C70.7721 18.1742 70.7865 18.1599 70.8123 18.1599H71.3331C71.3748 18.1599 71.4021 18.1329 71.4021 18.093V17.7666C71.4021 17.7267 71.3734 17.6996 71.3331 17.6996H70.8123C70.785 17.6996 70.7721 17.6854 70.7721 17.6583V16.7419C70.7721 16.702 70.7433 16.6749 70.703 16.6749H70.2643C70.224 16.6749 70.1967 16.7034 70.1967 16.7419V17.6583C70.1967 17.6868 70.1823 17.6996 70.1535 17.6996H69.8802C69.8399 17.6996 69.8126 17.7267 69.8126 17.7666V18.093C69.8126 18.1329 69.8414 18.1599 69.8817 18.1599ZM73.3815 21.0245C73.8058 21.0245 74.1065 20.8478 74.2776 20.5756H74.2848V20.882C74.2848 20.9219 74.3122 20.949 74.3524 20.949H74.7912C74.8329 20.949 74.8602 20.9205 74.8602 20.882V17.7666C74.8602 17.7267 74.8315 17.6996 74.7912 17.6996H74.3524C74.3122 17.6996 74.2848 17.7267 74.2848 17.7666V19.6934C74.2848 20.1822 73.9899 20.4943 73.5455 20.4943C73.0593 20.4943 72.819 20.1894 72.819 19.6592V17.7666C72.819 17.7267 72.7917 17.6996 72.75 17.6996H72.3127C72.271 17.6996 72.2436 17.7267 72.2436 17.7666V19.796C72.2436 20.5357 72.6622 21.0245 73.3815 21.0245ZM75.7363 18.1599H76.0096C76.0383 18.1599 76.0527 18.1742 76.0527 18.2013V20.0611C76.0527 20.6981 76.2973 20.9832 76.9359 20.9832H77.1891C77.2294 20.9832 77.2567 20.9561 77.2567 20.9148V20.5214C77.2567 20.4815 77.2294 20.4544 77.1891 20.4544H77.0453C76.7504 20.4544 76.6281 20.3661 76.6281 20.0411V18.2027C76.6281 18.1742 76.6411 18.1599 76.6684 18.1599H77.1891C77.2294 18.1599 77.2567 18.1329 77.2567 18.093V17.7666C77.2567 17.7267 77.2294 17.6996 77.1891 17.6996H76.6684C76.6411 17.6996 76.6281 17.6854 76.6281 17.6583V16.7419C76.6281 16.702 76.5993 16.6749 76.5591 16.6749H76.1203C76.1112 16.6743 76.1021 16.6756 76.0935 16.6787C76.085 16.6819 76.0772 16.6868 76.0707 16.6931C76.0641 16.6994 76.059 16.707 76.0557 16.7154C76.0524 16.7239 76.0509 16.7329 76.0513 16.7419V17.6583C76.0513 17.6868 76.0369 17.6996 76.011 17.6996H75.7377C75.6945 17.6996 75.6686 17.7267 75.6686 17.7666V18.093C75.6686 18.1329 75.696 18.1599 75.7363 18.1599ZM78.5859 18.6359C78.6952 18.3096 78.97 18.1272 79.3396 18.1272C79.7093 18.1272 79.9826 18.3096 80.092 18.6359C80.1281 18.7546 80.1446 18.8783 80.1409 19.0022C80.1409 19.0293 80.1265 19.0421 80.0992 19.0421H78.5787C78.5514 19.0421 78.5384 19.0279 78.5384 19.0022C78.5384 18.8526 78.5528 18.7371 78.5859 18.6359ZM78.5787 19.4967H80.6544C80.7019 19.4967 80.7292 19.4697 80.7292 19.4298C80.7292 18.9338 80.6947 18.7101 80.6271 18.5006C80.4415 17.9433 79.9697 17.6241 79.3396 17.6241C78.7153 17.6241 78.2363 17.9376 78.0522 18.5006C77.9832 18.6958 77.9486 18.9481 77.9486 19.32C77.9486 19.6948 77.9903 19.9328 78.058 20.1423C78.2363 20.7053 78.7096 21.0245 79.3727 21.0245C79.9481 21.0245 80.394 20.7936 80.653 20.4687C80.6817 20.4345 80.6817 20.4003 80.6472 20.3718L80.3667 20.121C80.3322 20.0939 80.2977 20.101 80.2646 20.1352C80.1598 20.2534 80.0298 20.3471 79.8841 20.4095C79.7383 20.4718 79.5803 20.5013 79.4216 20.4958C79.0189 20.4958 78.7225 20.3048 78.5931 19.9328C78.5532 19.8051 78.5348 19.6717 78.5384 19.5381C78.5384 19.511 78.5528 19.4967 78.5787 19.4967ZM50.6981 0.0476074H50.4521V22.7261H50.6996L50.6981 0.0476074Z" fill="#797D82"/>
<path id="Vector_2" d="M2.85293 17.3988L0.157227 22.7759C1.27924 22.3826 6.41748 20.728 7.80561 20.3275L11.6348 12.6687C11.6484 12.6417 11.6694 12.619 11.6952 12.6031C8.59364 13.9053 5.63142 15.5119 2.85293 17.3988Z" fill="#CD163F"/>
<path id="Vector_3" d="M16.5168 9.05312L12.0633 0.177239C12.0368 0.12404 11.9958 0.0792454 11.945 0.0479229C11.8941 0.0166003 11.8355 0 11.7756 0C11.7157 0 11.657 0.0166003 11.6062 0.0479229C11.5553 0.0792454 11.5144 0.12404 11.4879 0.177239L4.43359 14.2478C6.9287 12.7424 9.55308 11.4581 12.2762 10.4099C13.6633 9.88157 15.0799 9.42865 16.5168 9.05312Z" fill="#17457A"/>
<path id="Vector_4" d="M38.1699 20.3034C40.132 20.8635 42.0481 21.529 43.9138 22.2957V16.0279C42.121 14.6428 40.1975 13.4325 38.1699 12.4137V20.3034Z" fill="#CD163F"/>
<path id="Vector_5" d="M32.9888 7.47686C32.9083 8.31486 32.1646 8.93765 31.3159 8.93765H26.1777C26.1353 8.93765 26.0947 8.92098 26.0648 8.89132C26.0348 8.86165 26.018 8.82141 26.018 8.77946V5.86358C26.018 5.77665 26.0899 5.70539 26.1762 5.70539H31.3648C32.3156 5.70539 33.0795 6.51773 32.9888 7.47686ZM43.9141 13.7618V0.33112C43.9141 0.155825 43.7702 0.0133094 43.5933 0.0133094H38.491C38.3141 0.0133094 38.1702 0.155825 38.1702 0.33112V4.23605C38.1702 4.30304 38.0782 4.32441 38.0494 4.26456C37.4362 2.99083 36.4711 1.9154 35.2661 1.16296C34.0611 0.410518 32.6655 0.0118953 31.2411 0.0133094H20.5949C20.418 0.0133094 20.2741 0.155825 20.2741 0.33112V15.9993C20.2741 16.1333 20.0915 16.176 20.031 16.0563L17.3497 10.712C15.379 11.2079 13.4975 11.8549 11.7354 12.5846C11.7714 12.5742 11.8099 12.5768 11.8442 12.592C11.8784 12.6071 11.9061 12.6338 11.9224 12.6673L14.9734 18.7855C18.6284 18.2502 22.3286 18.0802 26.018 18.2781V14.7851C26.018 14.6981 26.0899 14.6255 26.1762 14.6255H31.3648C32.7691 14.624 34.1439 14.2259 35.3279 13.4777C36.5119 12.7295 37.456 11.6623 38.0494 10.4013C38.0652 10.3671 38.1026 10.3585 38.1314 10.3728C40.1615 11.3206 42.0975 12.4534 43.9141 13.759" fill="#17457A"/>
<path id="Vector_6" d="M16.5171 9.0531C15.1088 9.41937 13.6948 9.87114 12.2779 10.4099C9.55432 11.458 6.92946 12.7423 4.43389 14.2478L2.85156 17.4003C5.6421 15.505 8.61793 13.8927 11.7342 12.5875C13.557 11.8268 15.434 11.2004 17.35 10.7134L16.5171 9.0531ZM38.1316 10.3714C38.1532 10.3813 38.1705 10.4013 38.1705 10.4298V12.4136C40.198 13.4324 42.1216 14.6428 43.9143 16.0278V13.7618C42.0978 12.4553 40.1618 11.3202 38.1316 10.3714Z" fill="#C7C9C8"/>
<path id="Vector_7" d="M45.3195 22.2957L45.3008 22.0064L45.2979 21.8682H45.2921L45.249 22.015L45.1612 22.2886H45.0591L44.9685 22.0078C44.9574 21.9612 44.9459 21.9146 44.9339 21.8682H44.9282C44.9282 21.9138 44.9282 21.9608 44.9253 22.0064L44.9066 22.2957H44.8117L44.8491 21.8026H44.9958L45.0821 22.0449C45.0936 22.0819 45.1022 22.1176 45.1152 22.1689H45.1166L45.1512 22.0463L45.2375 21.804H45.3799L45.4173 22.2957H45.3195ZM44.7829 21.8026V21.8853H44.6247V22.2957H44.5254V21.8853H44.3672V21.8026H44.7829Z" fill="#797D82"/>
</g>
</svg>
