<svg width="49" height="48" viewBox="0 0 49 48" fill="none" xmlns="http://www.w3.org/2000/svg">
<g id="beenhere">
<mask id="mask0_32_450" style="mask-type:alpha" maskUnits="userSpaceOnUse" x="0" y="0" width="49" height="48">
<rect id="Bounding box" x="0.5" width="48" height="48" fill="#D9D9D9"/>
</mask>
<g mask="url(#mask0_32_450)">
<path id="beenhere_2" d="M24.5 46L9.7 34.9C9.325 34.625 9.03125 34.275 8.81875 33.85C8.60625 33.425 8.5 32.975 8.5 32.5V7C8.5 6.2 8.8 5.5 9.4 4.9C10 4.3 10.7 4 11.5 4H37.5C38.3 4 39 4.3 39.6 4.9C40.2 5.5 40.5 6.2 40.5 7V32.5C40.5 32.975 40.3937 33.425 40.1812 33.85C39.9688 34.275 39.675 34.625 39.3 34.9L24.5 46ZM24.5 42.25L37.5 32.25V7H11.5V32.25L24.5 42.25ZM22.4 30L33.7 18.7L31.55 16.6L22.35 25.8L17.4 20.85L15.3 22.95L22.4 30Z" fill="#8BD5FF"/>
</g>
</g>
</svg>
