<svg width="25" height="25" viewBox="0 0 25 25" fill="none" xmlns="http://www.w3.org/2000/svg">
<g id="icons/Facebook">
<path id="Vector" d="M19.5 3.5H5.5C4.395 3.5 3.5 4.395 3.5 5.5V19.5C3.5 20.605 4.395 21.5 5.5 21.5H13.121V14.539H10.778V11.814H13.121V9.809C13.121 7.485 14.542 6.218 16.616 6.218C17.315 6.216 18.013 6.252 18.708 6.323V8.753H17.28C16.15 8.753 15.93 9.287 15.93 10.075V11.81H18.63L18.279 14.535H15.914V21.5H19.5C20.605 21.5 21.5 20.605 21.5 19.5V5.5C21.5 4.395 20.605 3.5 19.5 3.5Z" fill="white"/>
</g>
</svg>
