<svg width="68" height="69" viewBox="0 0 68 69" fill="none" xmlns="http://www.w3.org/2000/svg">
<g id="handyman">
<mask id="mask0_27_341" style="mask-type:alpha" maskUnits="userSpaceOnUse" x="0" y="0" width="68" height="69">
<rect id="Bounding box" y="0.5" width="68" height="68" fill="#D9D9D9"/>
</mask>
<g mask="url(#mask0_27_341)">
<path id="handyman_2" d="M52.6382 59.9455C52.3598 59.9455 52.1115 59.8983 51.8936 59.8039C51.6756 59.7094 51.4668 59.5623 51.267 59.3625L35.9234 44.0189C35.7236 43.8191 35.5674 43.6121 35.4548 43.3977C35.3422 43.1834 35.2859 42.9419 35.2859 42.6731C35.2859 42.4043 35.3422 42.1609 35.4548 41.943C35.5674 41.725 35.7236 41.5162 35.9234 41.3164L40.6365 36.6032C40.8363 36.4034 41.0468 36.2472 41.2681 36.1346C41.4894 36.022 41.7384 35.9657 42.0151 35.9657C42.2786 35.9657 42.5152 36.022 42.7249 36.1346C42.9346 36.2472 43.1575 36.4034 43.3936 36.6032L58.7372 51.9468C58.937 52.1466 59.0841 52.3579 59.1786 52.5807C59.273 52.8035 59.3202 53.0541 59.3202 53.3326C59.3202 53.6111 59.273 53.8593 59.1786 54.0773C59.0841 54.2952 58.937 54.5041 58.7372 54.7039L54.024 59.3625C53.8243 59.5623 53.613 59.7094 53.3902 59.8039C53.1674 59.8983 52.9168 59.9455 52.6382 59.9455ZM52.6455 57.7333L57.0536 53.3253L41.9606 38.2324L37.5526 42.6404L52.6455 57.7333ZM15.2764 59.9455C14.9979 59.9455 14.7469 59.8983 14.5235 59.8039C14.3002 59.7094 14.0886 59.5623 13.8888 59.3625L9.19198 54.7202C8.99218 54.5204 8.84506 54.3053 8.75061 54.0749C8.65617 53.8445 8.60895 53.5911 8.60895 53.3148C8.60895 53.0385 8.65617 52.7822 8.75061 52.5461C8.84506 52.31 8.98767 52.0966 9.17845 51.9058L24.2032 36.8811H30.1151L32.4253 34.5708L20.0839 22.2295H16.0464L8.77243 14.9555L14.3683 9.35962L21.6423 16.6336V20.6711L33.9836 33.0125L42.974 24.0221L36.975 18.0231L40.1789 14.8192H33.7549L32.9157 14.0346L40.5112 6.43909L41.2958 7.22371V13.7023L44.4997 10.4984L56.634 22.5237C57.2686 23.1382 57.7506 23.8567 58.0799 24.6791C58.4091 25.5016 58.5737 26.3687 58.5737 27.2805C58.5737 27.8435 58.4929 28.4256 58.3313 29.0268C58.1696 29.628 57.9508 30.1919 57.6747 30.7186L51.8718 24.9157L47.8507 28.9369L44.4943 25.5805L31.6189 38.4558V44.4603L16.6487 59.376C16.4579 59.5668 16.2511 59.7094 16.0283 59.8039C15.8055 59.8983 15.5549 59.9455 15.2764 59.9455ZM15.2836 57.6789L30.2131 42.7494V38.3414H25.8052L10.8756 53.2708L15.2836 57.6789ZM15.2836 57.6789L10.8756 53.2708L13.0785 55.4761L15.2836 57.6789Z" fill="white"/>
</g>
</g>
</svg>
