<svg width="25" height="25" viewBox="0 0 25 25" fill="none" xmlns="http://www.w3.org/2000/svg">
<g id="icons/LinkedIn">
<path id="Vector" d="M19.5 3.5H5.5C4.395 3.5 3.5 4.395 3.5 5.5V19.5C3.5 20.605 4.395 21.5 5.5 21.5H19.5C20.605 21.5 21.5 20.605 21.5 19.5V5.5C21.5 4.395 20.605 3.5 19.5 3.5ZM9.5 17.5H6.977V10.5H9.5V17.5ZM8.194 9.217C7.423 9.217 6.908 8.703 6.908 8.017C6.908 7.331 7.422 6.817 8.279 6.817C9.05 6.817 9.565 7.331 9.565 8.017C9.565 8.703 9.051 9.217 8.194 9.217ZM18.5 17.5H16.058V13.674C16.058 12.616 15.407 12.372 15.163 12.372C14.919 12.372 14.105 12.535 14.105 13.674C14.105 13.837 14.105 17.5 14.105 17.5H11.582V10.5H14.105V11.477C14.43 10.907 15.081 10.5 16.302 10.5C17.523 10.5 18.5 11.477 18.5 13.674V17.5Z" fill="white"/>
</g>
</svg>
