<svg width="68" height="69" viewBox="0 0 68 69" fill="none" xmlns="http://www.w3.org/2000/svg">
<g id="manage_accounts">
<mask id="mask0_27_329" style="mask-type:alpha" maskUnits="userSpaceOnUse" x="0" y="0" width="68" height="69">
<rect id="Bounding box" y="0.5" width="68" height="68" fill="#D9D9D9"/>
</mask>
<g mask="url(#mask0_27_329)">
<path id="manage_accounts_2" d="M28.3333 33.3556C25.6063 33.3556 23.358 32.4755 21.5886 30.7151C19.8191 28.9547 18.9344 26.7019 18.9344 23.9567C18.9344 21.2296 19.8191 18.9814 21.5886 17.2119C23.358 15.4425 25.6063 14.5577 28.3333 14.5577C31.0603 14.5577 33.3086 15.4425 35.0781 17.2119C36.8475 18.9814 37.7322 21.2296 37.7322 23.9567C37.7322 26.7019 36.8475 28.9547 35.0781 30.7151C33.3086 32.4755 31.0603 33.3556 28.3333 33.3556ZM7.08337 55.0034V49.6255C7.08337 48.1363 7.45572 46.8304 8.20042 45.708C8.94506 44.5855 10.0239 43.6974 11.4369 43.0436C14.5281 41.6596 17.3941 40.6461 20.0349 40.0032C22.6757 39.3603 25.4418 39.0388 28.3333 39.0388H29.0389C29.2913 39.0388 29.5265 39.0297 29.7445 39.0115C29.5338 39.5455 29.3758 40.054 29.2705 40.5371C29.1651 41.0202 29.0743 41.5923 28.9981 42.2534H28.3333C25.5036 42.2534 22.8555 42.5304 20.3891 43.0844C17.9226 43.6383 15.3872 44.5818 12.7827 45.9149C11.8818 46.3654 11.2425 46.9148 10.8647 47.5632C10.487 48.2116 10.2981 48.899 10.2981 49.6255V51.7887H29.0253C29.1888 52.4025 29.3904 52.9746 29.6301 53.505C29.8698 54.0353 30.1531 54.5348 30.48 55.0034H7.08337ZM47.0279 57.3026L46.5102 53.227C45.6529 53.0273 44.8066 52.6985 43.9711 52.2408C43.1357 51.7831 42.4346 51.2437 41.8679 50.6225L38.4353 51.5543L37.1821 49.4784L40.1571 46.8521C39.9718 46.3 39.8791 45.6007 39.8791 44.7543C39.8791 43.908 39.9718 43.1996 40.1571 42.6293L37.2094 39.9759L38.4625 37.8999L41.8679 38.859C42.4164 38.2196 43.1129 37.6756 43.9575 37.227C44.802 36.7784 45.6529 36.4542 46.5102 36.2544L47.0279 32.1788H49.7085L50.2261 36.2544C51.0653 36.4542 51.9071 36.7784 52.7516 37.227C53.5962 37.6756 54.3018 38.2105 54.8685 38.8317L58.2738 37.8999L59.4998 39.9486L56.552 42.6021C56.7555 43.1963 56.8572 43.9106 56.8572 44.7451C56.8572 45.5795 56.7555 46.2818 56.552 46.8521L59.527 49.4784L58.3011 51.5543L54.8685 50.6225C54.2836 51.2437 53.5735 51.7831 52.738 52.2408C51.9026 52.6985 51.0653 53.0273 50.2261 53.227L49.7085 57.3026H47.0279ZM48.3434 50.1486C49.9509 50.1486 51.2514 49.6465 52.2449 48.6423C53.2384 47.6381 53.7351 46.3413 53.7351 44.7519C53.7351 43.1444 53.2376 41.8438 52.2425 40.8504C51.2474 39.8569 49.9461 39.3602 48.3386 39.3602C46.7491 39.3602 45.4532 39.8577 44.4506 40.8528C43.448 41.8478 42.9467 43.1492 42.9467 44.7568C42.9467 46.3462 43.4488 47.6421 44.453 48.6447C45.4572 49.6473 46.754 50.1486 48.3434 50.1486ZM28.3333 30.141C30.1023 30.141 31.5753 29.5571 32.7522 28.3892C33.9291 27.2214 34.5175 25.7439 34.5175 23.9567C34.5175 22.1877 33.9291 20.7147 32.7522 19.5378C31.5753 18.3609 30.1023 17.7724 28.3333 17.7724C26.5643 17.7724 25.0914 18.3609 23.9144 19.5378C22.7375 20.7147 22.1491 22.1877 22.1491 23.9567C22.1491 25.7439 22.7375 27.2214 23.9144 28.3892C25.0914 29.5571 26.5643 30.141 28.3333 30.141Z" fill="white"/>
</g>
</g>
</svg>
