<svg width="49" height="49" viewBox="0 0 49 49" fill="none" xmlns="http://www.w3.org/2000/svg">
<g id="more_time">
<mask id="mask0_32_468" style="mask-type:alpha" maskUnits="userSpaceOnUse" x="0" y="0" width="49" height="49">
<rect id="Bounding box" x="0.5" y="0.5" width="48" height="48" fill="#D9D9D9"/>
</mask>
<g mask="url(#mask0_32_468)">
<path id="more_time_2" d="M22.5 42.5C20 42.5 17.6583 42.025 15.475 41.075C13.2917 40.125 11.3917 38.8417 9.775 37.225C8.15833 35.6083 6.875 33.7083 5.925 31.525C4.975 29.3417 4.5 27 4.5 24.5C4.5 22 4.975 19.6583 5.925 17.475C6.875 15.2917 8.16667 13.3917 9.8 11.775C11.4333 10.1583 13.3417 8.875 15.525 7.925C17.7083 6.975 20.05 6.5 22.55 6.5C23.4167 6.5 24.2917 6.56667 25.175 6.7C26.0583 6.83333 26.9667 7.03333 27.9 7.3V10.5C27.0333 10.1667 26.15 9.91667 25.25 9.75C24.35 9.58333 23.45 9.5 22.55 9.5C18.3833 9.5 14.8333 10.9583 11.9 13.875C8.96667 16.7917 7.5 20.3333 7.5 24.5C7.5 28.6667 8.95833 32.2083 11.875 35.125C14.7917 38.0417 18.3333 39.5 22.5 39.5C26.6667 39.5 30.2083 38.0417 33.125 35.125C36.0417 32.2083 37.5 28.6667 37.5 24.5C37.5 24 37.475 23.475 37.425 22.925C37.375 22.375 37.2833 21.75 37.15 21.05H40.2C40.3 21.6167 40.375 22.1917 40.425 22.775C40.475 23.3583 40.5 23.9333 40.5 24.5C40.5 27 40.025 29.3417 39.075 31.525C38.125 33.7083 36.8417 35.6083 35.225 37.225C33.6083 38.8417 31.7083 40.125 29.525 41.075C27.3417 42.025 25 42.5 22.5 42.5ZM28.3 32.85L20.7 25.25V14.5H23.7V24.05L30.4 30.75L28.3 32.85ZM37.2 18.05V11.8H30.9V8.8H37.2V2.5H40.2V8.8H46.5V11.8H40.2V18.05H37.2Z" fill="#8BD5FF"/>
</g>
</g>
</svg>
